<svg width="40" height="25" viewBox="0 0 40 25" fill="none" xmlns="http://www.w3.org/2000/svg">
<g filter="url(#filter0_bd_3570_383)">
<rect x="5" y="1" width="30" height="15" rx="7.5" fill="black" fill-opacity="0.7" shape-rendering="crispEdges"/>
</g>
<path d="M26 6.45833C25.7792 6.46135 25.56 6.49205 25.3492 6.54948C25.4467 6.69956 25.4986 6.86902 25.5 7.04167C25.5 7.17572 25.4698 7.30847 25.4112 7.43232C25.3526 7.55618 25.2666 7.66871 25.1583 7.7635C25.05 7.8583 24.9213 7.93349 24.7798 7.98479C24.6382 8.0361 24.4865 8.0625 24.3333 8.0625C24.136 8.0613 23.9424 8.01586 23.7708 7.93052C23.6355 8.34119 23.6513 8.7787 23.8159 9.18109C23.9805 9.58347 24.2857 9.93033 24.6882 10.1725C25.0906 10.4147 25.5699 10.54 26.0583 10.5306C26.5466 10.5212 27.0192 10.3776 27.4091 10.1201C27.7989 9.86261 28.0863 9.50432 28.2306 9.09598C28.3748 8.68764 28.3685 8.24994 28.2126 7.84489C28.0568 7.43984 27.7592 7.08797 27.3621 6.83911C26.965 6.59026 26.4885 6.45704 26 6.45833ZM31.9275 8.23385C30.7977 6.30503 28.561 5 26 5C23.439 5 21.2017 6.30594 20.0725 8.23404C20.0248 8.31653 20 8.40766 20 8.50009C20 8.59252 20.0248 8.68366 20.0725 8.76615C21.2023 10.695 23.439 12 26 12C28.561 12 30.7983 10.6941 31.9275 8.76596C31.9752 8.68347 32 8.59234 32 8.49991C32 8.40748 31.9752 8.31634 31.9275 8.23385ZM26 11.125C23.9448 11.125 22.0606 10.1224 21.0431 8.5C22.0606 6.8776 23.9446 5.875 26 5.875C28.0554 5.875 29.9394 6.8776 30.9569 8.5C29.9396 10.1224 28.0554 11.125 26 11.125Z" fill="white" fill-opacity="0.9"/>
<path d="M10.169 12.09C9.947 12.09 9.71 12.057 9.458 11.991C9.206 11.919 8.999 11.817 8.837 11.685C8.759 11.619 8.696 11.535 8.648 11.433C8.606 11.325 8.585 11.223 8.585 11.127C8.585 11.025 8.627 10.929 8.711 10.839C8.801 10.749 8.927 10.704 9.089 10.704C9.197 10.704 9.332 10.761 9.494 10.875C9.59 10.935 9.695 10.989 9.809 11.037C9.923 11.085 10.04 11.109 10.16 11.109C10.448 11.109 10.697 11.058 10.907 10.956C11.117 10.848 11.279 10.701 11.393 10.515C11.507 10.329 11.564 10.11 11.564 9.858C11.564 9.63 11.51 9.435 11.402 9.273C11.3 9.111 11.162 8.985 10.988 8.895C10.82 8.805 10.637 8.76 10.439 8.76C10.253 8.76 10.091 8.79 9.953 8.85C9.815 8.91 9.689 8.973 9.575 9.039C9.461 9.099 9.347 9.129 9.233 9.129C9.035 9.129 8.888 9.087 8.792 9.003C8.696 8.913 8.636 8.808 8.612 8.688C8.588 8.568 8.582 8.46 8.594 8.364L8.873 6.177C8.897 6.051 8.957 5.949 9.053 5.871C9.155 5.787 9.275 5.745 9.413 5.745H12.014C12.158 5.745 12.278 5.793 12.374 5.889C12.47 5.985 12.518 6.105 12.518 6.249C12.518 6.387 12.47 6.504 12.374 6.6C12.278 6.69 12.158 6.735 12.014 6.735H9.692L9.791 6.654L9.548 8.481L9.431 8.139C9.467 8.079 9.545 8.022 9.665 7.968C9.785 7.914 9.923 7.869 10.079 7.833C10.235 7.791 10.388 7.77 10.538 7.77C10.94 7.77 11.3 7.863 11.618 8.049C11.936 8.229 12.185 8.478 12.365 8.796C12.551 9.108 12.644 9.462 12.644 9.858C12.644 10.308 12.542 10.701 12.338 11.037C12.134 11.373 11.846 11.634 11.474 11.82C11.108 12 10.673 12.09 10.169 12.09ZM15.2195 12.09C14.9975 12.09 14.7605 12.057 14.5085 11.991C14.2565 11.919 14.0495 11.817 13.8875 11.685C13.8095 11.619 13.7465 11.535 13.6985 11.433C13.6565 11.325 13.6355 11.223 13.6355 11.127C13.6355 11.025 13.6775 10.929 13.7615 10.839C13.8515 10.749 13.9775 10.704 14.1395 10.704C14.2475 10.704 14.3825 10.761 14.5445 10.875C14.6405 10.935 14.7455 10.989 14.8595 11.037C14.9735 11.085 15.0905 11.109 15.2105 11.109C15.4985 11.109 15.7475 11.058 15.9575 10.956C16.1675 10.848 16.3295 10.701 16.4435 10.515C16.5575 10.329 16.6145 10.11 16.6145 9.858C16.6145 9.63 16.5605 9.435 16.4525 9.273C16.3505 9.111 16.2125 8.985 16.0385 8.895C15.8705 8.805 15.6875 8.76 15.4895 8.76C15.3035 8.76 15.1415 8.79 15.0035 8.85C14.8655 8.91 14.7395 8.973 14.6255 9.039C14.5115 9.099 14.3975 9.129 14.2835 9.129C14.0855 9.129 13.9385 9.087 13.8425 9.003C13.7465 8.913 13.6865 8.808 13.6625 8.688C13.6385 8.568 13.6325 8.46 13.6445 8.364L13.9235 6.177C13.9475 6.051 14.0075 5.949 14.1035 5.871C14.2055 5.787 14.3255 5.745 14.4635 5.745H17.0645C17.2085 5.745 17.3285 5.793 17.4245 5.889C17.5205 5.985 17.5685 6.105 17.5685 6.249C17.5685 6.387 17.5205 6.504 17.4245 6.6C17.3285 6.69 17.2085 6.735 17.0645 6.735H14.7425L14.8415 6.654L14.5985 8.481L14.4815 8.139C14.5175 8.079 14.5955 8.022 14.7155 7.968C14.8355 7.914 14.9735 7.869 15.1295 7.833C15.2855 7.791 15.4385 7.77 15.5885 7.77C15.9905 7.77 16.3505 7.863 16.6685 8.049C16.9865 8.229 17.2355 8.478 17.4155 8.796C17.6015 9.108 17.6945 9.462 17.6945 9.858C17.6945 10.308 17.5925 10.701 17.3885 11.037C17.1845 11.373 16.8965 11.634 16.5245 11.82C16.1585 12 15.7235 12.09 15.2195 12.09Z" fill="white" fill-opacity="0.9"/>
<defs>
<filter id="filter0_bd_3570_383" x="-2" y="-6" width="44" height="31" filterUnits="userSpaceOnUse" color-interpolation-filters="sRGB">
<feFlood flood-opacity="0" result="BackgroundImageFix"/>
<feGaussianBlur in="BackgroundImageFix" stdDeviation="3.5"/>
<feComposite in2="SourceAlpha" operator="in" result="effect1_backgroundBlur_3570_383"/>
<feColorMatrix in="SourceAlpha" type="matrix" values="0 0 0 0 0 0 0 0 0 0 0 0 0 0 0 0 0 0 127 0" result="hardAlpha"/>
<feOffset dy="4"/>
<feGaussianBlur stdDeviation="2.5"/>
<feComposite in2="hardAlpha" operator="out"/>
<feColorMatrix type="matrix" values="0 0 0 0 0 0 0 0 0 0 0 0 0 0 0 0 0 0 0.4 0"/>
<feBlend mode="normal" in2="effect1_backgroundBlur_3570_383" result="effect2_dropShadow_3570_383"/>
<feBlend mode="normal" in="SourceGraphic" in2="effect2_dropShadow_3570_383" result="shape"/>
</filter>
</defs>
</svg>
