<svg width="65" height="25" viewBox="0 0 65 25" fill="none" xmlns="http://www.w3.org/2000/svg">
<g filter="url(#filter0_bd_3570_387)">
<rect x="5.59131" y="15.3087" width="14.1427" height="54.3214" rx="7.07134" transform="rotate(-90 5.59131 15.3087)" fill="black" fill-opacity="0.7" shape-rendering="crispEdges"/>
</g>
<path d="M30.71 5.02324C30.004 5.02324 29.4263 5.59021 29.4263 6.28298V10.1922C29.4263 10.8849 30.004 11.4517 30.71 11.4517H34.6936C35.3995 11.4517 35.9771 10.885 35.9771 10.1922V6.28298C35.9771 5.59022 35.3995 5.02324 34.6936 5.02324H30.71ZM31.0329 6.08407C31.3713 6.08407 31.5798 6.30213 31.5863 6.58877C31.5863 6.86907 31.3713 7.09326 31.0263 7.09326H31.02C30.6879 7.09326 30.4733 6.86909 30.4733 6.58877C30.4733 6.30213 30.6944 6.08407 31.0329 6.08407ZM33.9498 7.42377C34.6007 7.42377 35.0887 7.84131 35.0887 8.73856V10.4136H34.0994V8.85087C34.0994 8.45817 33.9563 8.19025 33.5982 8.19025C33.3249 8.19025 33.162 8.37083 33.0905 8.54528C33.0644 8.60768 33.0579 8.69485 33.0579 8.78215V10.4136H32.0686C32.0686 10.4136 32.0816 7.76638 32.0686 7.49228H33.0581V7.90597C33.1896 7.70692 33.4248 7.42377 33.9498 7.42377ZM30.5317 7.49249H31.521V10.4136H30.5317V8.95305V7.49249Z" fill="white"/>
<path d="M48.9144 5.02324C48.2518 5.02324 47.7183 5.54681 47.7183 6.19704V10.2779C47.7183 10.9282 48.2518 11.4517 48.9144 11.4517H51.1683V8.93859H50.4911V8.03378H51.1683V7.26075C51.1683 6.65342 51.5684 6.09579 52.4901 6.09579C52.8633 6.09579 53.1393 6.13095 53.1393 6.13095L53.1176 6.97589C53.1176 6.97589 52.8361 6.97328 52.529 6.97328C52.1966 6.97328 52.1433 7.12357 52.1433 7.37306V8.03378H53.144L53.1004 8.93859H52.1433V11.4517H53.0729C53.7356 11.4517 54.2691 10.9282 54.2691 10.2779V6.19705C54.2691 5.54681 53.7356 5.02325 53.0729 5.02325H48.9144L48.9144 5.02324Z" fill="white"/>
<path d="M14.4093 7.16561C13.8079 7.16561 13.317 7.64727 13.317 8.23748C13.317 8.8277 13.8079 9.30935 14.4093 9.30935C15.0107 9.30935 15.5015 8.8277 15.5015 8.23748C15.5015 7.64727 15.0107 7.16561 14.4093 7.16561ZM17.6852 8.23748C17.6852 7.79362 17.6893 7.35377 17.6639 6.91071C17.6385 6.39608 17.5189 5.93935 17.1354 5.56303C16.7511 5.18591 16.2865 5.06931 15.7621 5.04439C15.3098 5.01946 14.8616 5.02348 14.4101 5.02348C13.9578 5.02348 13.5096 5.01946 13.0581 5.04439C12.5337 5.06931 12.0683 5.18671 11.6848 5.56303C11.3005 5.94016 11.1817 6.39608 11.1563 6.91071C11.1309 7.35458 11.135 7.79442 11.135 8.23748C11.135 8.68054 11.1309 9.12119 11.1563 9.56426C11.1817 10.0789 11.3013 10.5356 11.6848 10.9119C12.0691 11.2891 12.5337 11.4057 13.0581 11.4306C13.5104 11.4555 13.9586 11.4515 14.4101 11.4515C14.8624 11.4515 15.3106 11.4555 15.7621 11.4306C16.2865 11.4057 16.7519 11.2883 17.1354 10.9119C17.5197 10.5348 17.6385 10.0789 17.6639 9.56426C17.6901 9.12119 17.6852 8.68135 17.6852 8.23748ZM14.4093 9.8867C13.4793 9.8867 12.7287 9.15014 12.7287 8.23748C12.7287 7.32482 13.4793 6.58827 14.4093 6.58827C15.3393 6.58827 16.0899 7.32482 16.0899 8.23748C16.0899 9.15014 15.3393 9.8867 14.4093 9.8867ZM16.1587 6.90589C15.9416 6.90589 15.7662 6.73381 15.7662 6.52072C15.7662 6.30763 15.9416 6.13555 16.1587 6.13555C16.3758 6.13555 16.5512 6.30763 16.5512 6.52072C16.5513 6.57132 16.5411 6.62143 16.5214 6.66819C16.5017 6.71495 16.4728 6.75744 16.4364 6.79322C16.3999 6.82899 16.3566 6.85736 16.309 6.8767C16.2613 6.89603 16.2103 6.90595 16.1587 6.90589Z" fill="white"/>
<defs>
<filter id="filter0_bd_3570_387" x="-1.40869" y="-5.83395" width="68.3213" height="30.1427" filterUnits="userSpaceOnUse" color-interpolation-filters="sRGB">
<feFlood flood-opacity="0" result="BackgroundImageFix"/>
<feGaussianBlur in="BackgroundImageFix" stdDeviation="3.5"/>
<feComposite in2="SourceAlpha" operator="in" result="effect1_backgroundBlur_3570_387"/>
<feColorMatrix in="SourceAlpha" type="matrix" values="0 0 0 0 0 0 0 0 0 0 0 0 0 0 0 0 0 0 127 0" result="hardAlpha"/>
<feOffset dy="4"/>
<feGaussianBlur stdDeviation="2.5"/>
<feComposite in2="hardAlpha" operator="out"/>
<feColorMatrix type="matrix" values="0 0 0 0 0 0 0 0 0 0 0 0 0 0 0 0 0 0 0.4 0"/>
<feBlend mode="normal" in2="effect1_backgroundBlur_3570_387" result="effect2_dropShadow_3570_387"/>
<feBlend mode="normal" in="SourceGraphic" in2="effect2_dropShadow_3570_387" result="shape"/>
</filter>
</defs>
</svg>
